{"title":"Brits Behind Bars PDTV x264-TASTETV","uid":12169999,"size":280488817,"categoryP":"video","categoryS":"tv_shows","magnet":"?xt=urn:btih:ed0723906e92df727e6474145238ccef0a541b91&amp;dn=Brits+Behind+Bars+PDTV+x264-TASTETV&amp;tr=udp%3A%2F%2Ftracker.openbittorrent.com%3A80&amp;tr=udp%3A%2F%2Fopen.demonii.com%3A1337&amp;tr=udp%3A%2F%2Ftracker.coppersurfer.tk%3A6969&amp;tr=udp%3A%2F%2Fexodus.desync.com%3A6969","seeders":0,"leechers":0,"uploader":"Mulva1989","files":2,"time":1438137268,"description":"Brits Behind Bars PDTV x264-TASTETV\n\nThe fortunes of a Welsh woman who has already served two years of 12 year sentence in a Caribbean prison for allegedly killing her husband are followed. The show also follows the story of the businessman who has been in a Florida jail for 28 years for a murder he's attempting to prove he did not commit and the story of an alleged drugs mule.\n\nScreens @ &lt;a href=&quot;\nhttps://yuq.me/users/50/321/feszvhnwtk.jpg&quot; rel=&quot;nofollow&quot; target=&quot;_NEW&quot;&gt;\nhttps://yuq.me/users/50/321/feszvhnwtk.jpg&lt;/a&gt; &lt;a href=&quot;\nhttps://yuq.me/users/50/321/IcaXwvhLqF.jpg&quot; rel=&quot;nofollow&quot; target=&quot;_NEW&quot;&gt;\nhttps://yuq.me/users/50/321/IcaXwvhLqF.jpg&lt;/a&gt;\n\nFormat : MPEG-4\nFormat profile : Base Media\nCodec ID : isom\nFile size : 267 MiB\nDuration : 46mn 15s\nOverall bit rate mode : Variable\nOverall bit rate : 808 Kbps\nEncoded date : UTC 2015-07-28 21:57:23\nTagged date : UTC 2015-07-28 21:57:23\n\nVideo\nID : 1\nFormat : AVC\nFormat/Info : Advanced Video Codec\nFormat profile : &lt;a class=&quot;__cf_email__&quot; href=&quot;/cdn-cgi/l/email-protection&quot; data-cfemail=&quot;4d05242a250d017e637c&quot;&gt;[email&amp;#160;protected]&lt;/a&gt;&lt;script data-cfhash='f9e31' type=&quot;text/javascript&quot;&gt;\n/* &lt;![CDATA[ */!function(){try{var t=&quot;currentScript&quot;in document?document.currentScript:function(){for(var t=document.getElementsByTagName(&quot;script&quot;),e=t.length;e--;)if(t[e].getAttribute(&quot;data-cfhash&quot;))return t[e]}();if(t&amp;&amp;t.previousSibling){var e,r,n,i,c=t.previousSibling,a=c.getAttribute(&quot;data-cfemail&quot;);if(a){for(e=&quot;&quot;,r=parseInt(a.substr(0,2),16),n=2;a.length-n;n+=2)i=parseInt(a.substr(n,2),16)^r,e+=String.fromCharCode(i);e=document.createTextNode(e),c.parentNode.replaceChild(e,c)}t.parentNode.removeChild(t);}}catch(u){}}()/* ]]&gt; */&lt;/script&gt;\nFormat settings, CABAC : Yes\nFormat settings, ReFrames : 5 frames\nCodec ID : avc1\nCodec ID/Info : Advanced Video Coding\nDuration : 46mn 15s\nBit rate : 662 Kbps\nMaximum bit rate : 4 502 Kbps\nWidth : 716 pixels\nHeight : 394 pixels\nDisplay aspect ratio : 16:9\nFrame rate mode : Constant\nFrame rate : 25.000 fps\nColor space : YUV\nChroma subsampling : 4:2:0\nBit depth : 8 bits\nScan type : Progressive\nBits/(Pixel*Frame) : 0.094\nStream size : 219 MiB (82%)\nTitle : Video\nWriting library : x264 core 146 r2538 121396c\nEncoding settings : cabac=1 / ref=5 / deblock=1:0:0 / analyse=0x3:0x113 / me=umh / subme=8 / psy=1 / psy_rd=1.00:0.00 / mixed_ref=1 / me_range=16 / chroma_me=1 / trellis=1 / 8x8dct=1 / cqm=0 / deadzone=21,11 / fast_pskip=1 / chroma_qp_offset=-2 / threads=3 / lookahead_threads=1 / sliced_threads=0 / nr=0 / decimate=1 / interlaced=0 / bluray_compat=0 / constrained_intra=0 / bframes=3 / b_pyramid=2 / b_adapt=2 / b_bias=0 / direct=3 / weightb=1 / open_gop=0 / weightp=2 / keyint=250 / keyint_min=25 / scenecut=40 / intra_refresh=0 / rc_lookahead=50 / rc=crf / mbtree=1 / crf=21.0 / qcomp=0.60 / qpmin=0 / qpmax=69 / qpstep=4 / ip_ratio=1.40 / aq=1:1.00\nEncoded date : UTC 2015-07-28 21:57:23\nTagged date : UTC 2015-07-28 21:57:33\n\nAudio\nID : 2\nFormat : AAC\nFormat/Info : Advanced Audio Codec\nFormat profile : LC\nCodec ID : 40\nDuration : 46mn 15s\nBit rate mode : Variable\nBit rate : 144 Kbps\nMaximum bit rate : 178 Kbps\nChannel(s) : 2 channels\nChannel positions : Front: L R\nSampling rate : 48.0 KHz\nCompression mode : Lossy\nStream size : 46.9 MiB (18%)\nTitle : \nEncoded date : UTC 2015-07-28 21:07:15\nTagged date : UTC 2015-07-28 21:57:33","torrent":{"xt":"urn:btih:ed0723906e92df727e6474145238ccef0a541b91","amp;dn":"Brits+Behind+Bars+PDTV+x264-TASTETV","amp;tr":["udp%3A%2F%2Ftracker.openbittorrent.com%3A80","udp%3A%2F%2Fopen.demonii.com%3A1337","udp%3A%2F%2Ftracker.coppersurfer.tk%3A6969","udp%3A%2F%2Fexodus.desync.com%3A6969"],"infoHash":"ed0723906e92df727e6474145238ccef0a541b91","infoHashBuffer":{"type":"Buffer","data":[237,7,35,144,110,146,223,114,126,100,116,20,82,56,204,239,10,84,27,145]},"announce":[],"urlList":[]}}